<svg width="179" height="44" viewBox="0 0 179 44" fill="none" xmlns="http://www.w3.org/2000/svg">
<path d="M135.127 7.90254H126.259V4.3903H137.872C138.083 4.3903 138.505 4.17078 138.505 3.73176V0H121.403V21.5125H124.359L126.259 19.5368V12.5123H134.071V20.6344H127.526L125.626 22.6101V25.4638H134.283C137.872 25.4638 140.195 23.049 140.195 16.4636C139.983 10.7562 137.661 7.90254 135.127 7.90254Z" fill="#2B2B2B"/>
<path d="M120.77 23.2686H118.025V29.1955H123.726V25.4638V23.2686H120.77Z" fill="#E50071"/>
<path d="M0 25.4646H5.06726V12.5131H10.5568V25.4646H15.6241V7.90332H0V25.4646Z" fill="#2B2B2B"/>
<path d="M26.8153 7.46289C21.9591 7.46289 17.7363 10.9751 17.7363 16.6826C17.7363 22.3898 21.5368 25.9022 27.0263 25.9022C30.4046 25.9022 33.9939 24.1461 35.4718 19.9752H30.8268C30.1934 21.0728 28.9266 21.7313 27.0263 21.7313C25.1261 21.7313 23.2259 20.6337 23.2259 17.9996H35.6829C35.6829 11.8532 32.3048 7.46289 26.8153 7.46289ZM26.8153 11.6337C28.5043 11.6337 29.9823 12.5117 30.1934 14.2678H23.0148C23.6481 12.5117 25.1261 11.6337 26.8153 11.6337Z" fill="#2B2B2B"/>
<path d="M47.9278 7.46289C46.0275 7.46289 43.9161 8.34094 42.8605 10.3166V7.90192H37.582V31.1705H42.6493V23.0485C43.705 25.0241 46.0275 25.9022 47.7166 25.9022C51.9393 25.9022 55.1063 22.3898 55.1063 16.6826C55.3174 10.9751 52.1504 7.46289 47.9278 7.46289ZM46.2386 21.7313C44.1273 21.7313 42.4382 20.4143 42.4382 16.6826C42.4382 13.1703 44.1273 11.6337 46.2386 11.6337C48.35 11.6337 50.0391 13.3898 50.0391 16.6826C50.0391 19.9752 48.35 21.7313 46.2386 21.7313Z" fill="#2B2B2B"/>
<path d="M71.1536 16.0244C72.4204 15.3659 73.0539 14.0487 73.0539 12.5122C73.0539 8.7804 70.3091 7.90234 66.5086 7.90234H57.2188V25.4635H66.7198C70.7314 25.4635 73.4761 23.927 73.4761 19.9757C73.6873 17.7805 72.6316 16.4635 71.1536 16.0244ZM62.4971 11.4146H65.8753C67.3532 11.4146 67.9866 12.0731 67.9866 13.1707C67.9866 14.2683 67.1421 14.9268 65.8753 14.9268H62.4971V11.4146ZM66.0864 21.7318H62.4971V17.7805H66.0864C67.7756 17.7805 68.6201 18.4391 68.6201 19.7561C68.6201 21.0733 67.7756 21.7318 66.0864 21.7318Z" fill="#2B2B2B"/>
<path d="M83.3987 13.3902H81.0762V7.90234H75.7979V25.4635H83.6099C88.2549 25.4635 90.3662 23.927 90.3662 19.3172C90.3662 15.1463 88.2549 13.3902 83.3987 13.3902ZM83.1876 21.7318H81.0762V16.9024H83.1876C84.8767 16.9024 85.7212 17.5609 85.7212 19.0976C85.7212 21.0733 84.8767 21.7318 83.1876 21.7318Z" fill="#2B2B2B"/>
<path d="M96.9113 7.90234H91.6328V25.4635H96.9113V7.90234Z" fill="#2B2B2B"/>
<path d="M111.269 7.90234L104.512 18.2196V7.90234H99.4453V25.4635H104.301L111.269 15.1463V25.4635H116.336V7.90234H111.269Z" fill="#2B2B2B"/>
<path d="M146.951 18.2196V7.90234H141.884V25.4635H146.739L153.496 15.1463V25.4635H158.563V7.90234H153.707L146.951 18.2196Z" fill="#2B2B2B"/>
<path d="M160.886 7.90234V12.2926H166.374V25.244H171.653V12.2926H176.932V7.90234H160.886Z" fill="#2B2B2B"/>
<path d="M111.269 2.19514H104.512C104.09 2.19514 103.879 1.97564 103.879 1.5366V0H111.691V1.5366C111.691 1.97564 111.48 2.19514 111.269 2.19514Z" fill="#2B2B2B"/>
<path d="M103.904 33.2727H105.204V36.1534C105.204 36.554 105.273 36.8707 105.413 37.1037C105.552 37.3338 105.754 37.4972 106.018 37.5938C106.285 37.6903 106.609 37.7386 106.989 37.7386C107.191 37.7386 107.396 37.7315 107.603 37.7173C107.813 37.7003 108.022 37.6776 108.229 37.6491C108.437 37.6179 108.637 37.5824 108.83 37.5426C109.026 37.5 109.208 37.4531 109.376 37.402V38.5227C109.211 38.5767 109.036 38.625 108.852 38.6676C108.67 38.7074 108.479 38.7429 108.28 38.7741C108.082 38.8026 107.874 38.8253 107.658 38.8423C107.442 38.8594 107.219 38.8679 106.989 38.8679C106.353 38.8679 105.803 38.777 105.34 38.5952C104.88 38.4105 104.525 38.1193 104.275 37.7216C104.028 37.3239 103.904 36.8011 103.904 36.1534V33.2727ZM109.18 33.2727H110.484V42H109.18V33.2727ZM112.507 42V33.2727H117.978V34.4062H113.823V37.0653H117.693V38.1946H113.823V40.8665H118.029V42H112.507ZM119.077 42V40.858L119.332 40.8494C119.679 40.8409 119.952 40.723 120.151 40.4957C120.352 40.2685 120.499 39.902 120.589 39.3963C120.683 38.8906 120.746 38.2159 120.777 37.3722L120.926 33.2727H126.445V42H125.145V34.3892H122.166L122.03 37.7216C121.993 38.6562 121.899 39.4418 121.749 40.0781C121.598 40.7116 121.342 41.1903 120.981 41.5142C120.624 41.8381 120.114 42 119.452 42H119.077ZM134.55 42H133.229V34.402H131.575C131.143 34.402 130.793 34.4673 130.523 34.598C130.253 34.7259 130.055 34.9105 129.93 35.152C129.805 35.3935 129.743 35.679 129.743 36.0085C129.743 36.3352 129.805 36.6151 129.93 36.848C130.055 37.081 130.251 37.2585 130.518 37.3807C130.785 37.5028 131.133 37.5639 131.562 37.5639H133.8V38.6974H131.439C130.766 38.6974 130.205 38.5852 129.756 38.3608C129.31 38.1364 128.974 37.8224 128.75 37.419C128.528 37.0128 128.418 36.5426 128.418 36.0085C128.418 35.4716 128.528 34.9986 128.75 34.5895C128.972 34.1776 129.305 33.8551 129.751 33.6222C130.2 33.3892 130.761 33.2727 131.435 33.2727H134.55V42ZM130.241 38.0625H131.699L129.581 42H128.085L130.241 38.0625ZM136.472 42V33.2727H141.913V34.4062H137.788V36.7926H139.74C140.388 36.7926 140.937 36.8977 141.389 37.108C141.844 37.3182 142.19 37.6151 142.429 37.9986C142.67 38.3821 142.791 38.8338 142.791 39.3537C142.791 39.8736 142.67 40.3324 142.429 40.7301C142.19 41.1278 141.844 41.4389 141.389 41.6634C140.937 41.8878 140.388 42 139.74 42H136.472ZM137.788 40.892H139.74C140.115 40.892 140.432 40.8182 140.69 40.6705C140.952 40.5227 141.149 40.331 141.283 40.0952C141.419 39.8594 141.487 39.6065 141.487 39.3366C141.487 38.9446 141.337 38.608 141.035 38.3267C140.734 38.0426 140.303 37.9006 139.74 37.9006H137.788V40.892ZM144.347 33.2727H145.651V39.6818H145.731L150.172 33.2727H151.391V42H150.074V35.5994H149.993L145.561 42H144.347V33.2727ZM153.311 42V33.2727H154.628V37.0653H158.979V33.2727H160.3V42H158.979V38.1946H154.628V42H153.311ZM169.466 36.1108H168.137C168.086 35.8267 167.99 35.5767 167.851 35.3608C167.712 35.1449 167.542 34.9616 167.34 34.8111C167.138 34.6605 166.912 34.5469 166.662 34.4702C166.415 34.3935 166.152 34.3551 165.874 34.3551C165.371 34.3551 164.921 34.4815 164.523 34.7344C164.128 34.9872 163.816 35.358 163.586 35.8466C163.358 36.3352 163.245 36.9318 163.245 37.6364C163.245 38.3466 163.358 38.946 163.586 39.4347C163.816 39.9233 164.13 40.2926 164.527 40.5426C164.925 40.7926 165.372 40.9176 165.87 40.9176C166.145 40.9176 166.407 40.8807 166.654 40.8068C166.904 40.7301 167.13 40.6179 167.331 40.4702C167.533 40.3224 167.703 40.142 167.843 39.929C167.985 39.7131 168.083 39.4659 168.137 39.1875L169.466 39.1918C169.395 39.6207 169.257 40.0156 169.053 40.3764C168.851 40.7344 168.591 41.044 168.273 41.3054C167.958 41.5639 167.597 41.7642 167.191 41.9062C166.784 42.0483 166.341 42.1193 165.861 42.1193C165.105 42.1193 164.432 41.9403 163.841 41.5824C163.25 41.2216 162.784 40.706 162.443 40.0355C162.105 39.3651 161.936 38.5653 161.936 37.6364C161.936 36.7045 162.107 35.9048 162.448 35.2372C162.789 34.5668 163.255 34.0526 163.845 33.6946C164.436 33.3338 165.108 33.1534 165.861 33.1534C166.324 33.1534 166.756 33.2202 167.157 33.3537C167.56 33.4844 167.922 33.6776 168.243 33.9332C168.564 34.1861 168.83 34.4957 169.04 34.8622C169.25 35.2259 169.392 35.642 169.466 36.1108ZM176.219 42L173.288 38.0881H172.359V42H171.042V33.2727H172.359V36.9588H172.789L176.087 33.2727H177.694L174.204 37.1804L177.826 42H176.219Z" fill="#2B2B2B"/>
</svg>
